<svg viewBox="0 0 330 200" xmlns="http://www.w3.org/2000/svg"><g><g><g><g><g><line x1="51.5625" y1="174.68246307831666" x2="46.5625" y2="174.68246307831666" style="visibility: inherit;" fill="rgb(0, 0, 0)" stroke="rgb(204, 204, 204)" stroke-width="1px"></line><line x1="51.5625" y1="161.11333573756792" x2="46.5625" y2="161.11333573756792" style="visibility: inherit;" fill="rgb(0, 0, 0)" stroke="rgb(204, 204, 204)" stroke-width="1px"></line><line x1="51.5625" y1="150.58830288708705" x2="46.5625" y2="150.58830288708705" style="visibility: inherit;" fill="rgb(0, 0, 0)" stroke="rgb(204, 204, 204)" stroke-width="1px"></line><line x1="51.5625" y1="141.98872488760853" x2="46.5625" y2="141.98872488760853" style="visibility: inherit;" fill="rgb(0, 0, 0)" stroke="rgb(204, 204, 204)" stroke-width="1px"></line><line x1="51.5625" y1="134.71788528883707" x2="46.5625" y2="134.71788528883707" style="visibility: inherit;" fill="rgb(0, 0, 0)" stroke="rgb(204, 204, 204)" stroke-width="1px"></line><line x1="51.5625" y1="128.41959754685982" x2="46.5625" y2="128.41959754685982" style="visibility: inherit;" fill="rgb(0, 0, 0)" stroke="rgb(204, 204, 204)" stroke-width="1px"></line><line x1="51.5625" y1="122.86411403764913" x2="46.5625" y2="122.86411403764913" style="visibility: inherit;" fill="rgb(0, 0, 0)" stroke="rgb(204, 204, 204)" stroke-width="1px"></line><line x1="51.5625" y1="117.89456469637894" x2="46.5625" y2="117.89456469637894" style="visibility: inherit;" fill="rgb(0, 0, 0)" stroke="rgb(204, 204, 204)" stroke-width="1px"></line><line x1="51.5625" y1="85.20082650567083" x2="46.5625" y2="85.20082650567083" style="visibility: inherit;" fill="rgb(0, 0, 0)" stroke="rgb(204, 204, 204)" stroke-width="1px"></line><line x1="51.5625" y1="66.07621565571142" x2="46.5625" y2="66.07621565571142" style="visibility: inherit;" fill="rgb(0, 0, 0)" stroke="rgb(204, 204, 204)" stroke-width="1px"></line><line x1="51.5625" y1="52.507088314962715" x2="46.5625" y2="52.507088314962715" style="visibility: inherit;" fill="rgb(0, 0, 0)" stroke="rgb(204, 204, 204)" stroke-width="1px"></line><line x1="51.5625" y1="41.982055464481846" x2="46.5625" y2="41.982055464481846" style="visibility: inherit;" fill="rgb(0, 0, 0)" stroke="rgb(204, 204, 204)" stroke-width="1px"></line><line x1="51.5625" y1="33.38247746500332" x2="46.5625" y2="33.38247746500332" style="visibility: inherit;" fill="rgb(0, 0, 0)" stroke="rgb(204, 204, 204)" stroke-width="1px"></line><line x1="51.5625" y1="26.111637866231852" x2="46.5625" y2="26.111637866231852" style="visibility: inherit;" fill="rgb(0, 0, 0)" stroke="rgb(204, 204, 204)" stroke-width="1px"></line><line x1="51.5625" y1="19.81335012425459" x2="46.5625" y2="19.81335012425459" style="visibility: inherit;" fill="rgb(0, 0, 0)" stroke="rgb(204, 204, 204)" stroke-width="1px"></line><line x1="51.5625" y1="14.257866615043936" x2="46.5625" y2="14.257866615043936" style="visibility: inherit;" fill="rgb(0, 0, 0)" stroke="rgb(204, 204, 204)" stroke-width="1px"></line><line x1="51.5625" y1="9.288317273773735" x2="46.5625" y2="9.288317273773735" style="visibility: inherit;" fill="rgb(0, 0, 0)" stroke="rgb(204, 204, 204)" stroke-width="1px"></line></g><g transform="translate(41.5625, 0)"><text x="0" y="174.68246307831666" dx="0em" dy="0.3em" style="text-anchor: end; visibility: hidden; font-family: Roboto, sans-serif; font-size: 12px; font-weight: 200;" fill="rgb(33, 33, 33)" stroke="none" stroke-width="1px">0.03</text><text x="0" y="161.11333573756792" dx="0em" dy="0.3em" style="text-anchor: end; visibility: inherit; font-family: Roboto, sans-serif; font-size: 12px; font-weight: 200;" fill="rgb(33, 33, 33)" stroke="none" stroke-width="1px">0.04</text><text x="0" y="150.58830288708705" dx="0em" dy="0.3em" style="text-anchor: end; visibility: hidden; font-family: Roboto, sans-serif; font-size: 12px; font-weight: 200;" fill="rgb(33, 33, 33)" stroke="none" stroke-width="1px">0.05</text><text x="0" y="141.98872488760853" dx="0em" dy="0.3em" style="text-anchor: end; visibility: hidden; font-family: Roboto, sans-serif; font-size: 12px; font-weight: 200;" fill="rgb(33, 33, 33)" stroke="none" stroke-width="1px">0.06</text><text x="0" y="134.71788528883707" dx="0em" dy="0.3em" style="text-anchor: end; visibility: hidden; font-family: Roboto, sans-serif; font-size: 12px; font-weight: 200;" fill="rgb(33, 33, 33)" stroke="none" stroke-width="1px">0.07</text><text x="0" y="128.41959754685982" dx="0em" dy="0.3em" style="text-anchor: end; visibility: inherit; font-family: Roboto, sans-serif; font-size: 12px; font-weight: 200;" fill="rgb(33, 33, 33)" stroke="none" stroke-width="1px">0.08</text><text x="0" y="122.86411403764913" dx="0em" dy="0.3em" style="text-anchor: end; visibility: hidden; font-family: Roboto, sans-serif; font-size: 12px; font-weight: 200;" fill="rgb(33, 33, 33)" stroke="none" stroke-width="1px">0.09</text><text x="0" y="117.89456469637894" dx="0em" dy="0.3em" style="text-anchor: end; visibility: hidden; font-family: Roboto, sans-serif; font-size: 12px; font-weight: 200;" fill="rgb(33, 33, 33)" stroke="none" stroke-width="1px">0.1</text><text x="0" y="85.20082650567083" dx="0em" dy="0.3em" style="text-anchor: end; visibility: hidden; font-family: Roboto, sans-serif; font-size: 12px; font-weight: 200;" fill="rgb(33, 33, 33)" stroke="none" stroke-width="1px">0.2</text><text x="0" y="66.07621565571142" dx="0em" dy="0.3em" style="text-anchor: end; visibility: inherit; font-family: Roboto, sans-serif; font-size: 12px; font-weight: 200;" fill="rgb(33, 33, 33)" stroke="none" stroke-width="1px">0.3</text><text x="0" y="52.507088314962715" dx="0em" dy="0.3em" style="text-anchor: end; visibility: hidden; font-family: Roboto, sans-serif; font-size: 12px; font-weight: 200;" fill="rgb(33, 33, 33)" stroke="none" stroke-width="1px">0.4</text><text x="0" y="41.982055464481846" dx="0em" dy="0.3em" style="text-anchor: end; visibility: hidden; font-family: Roboto, sans-serif; font-size: 12px; font-weight: 200;" fill="rgb(33, 33, 33)" stroke="none" stroke-width="1px">0.5</text><text x="0" y="33.38247746500332" dx="0em" dy="0.3em" style="text-anchor: end; visibility: hidden; font-family: Roboto, sans-serif; font-size: 12px; font-weight: 200;" fill="rgb(33, 33, 33)" stroke="none" stroke-width="1px">0.6</text><text x="0" y="26.111637866231852" dx="0em" dy="0.3em" style="text-anchor: end; visibility: inherit; font-family: Roboto, sans-serif; font-size: 12px; font-weight: 200;" fill="rgb(33, 33, 33)" stroke="none" stroke-width="1px">0.7</text><text x="0" y="19.81335012425459" dx="0em" dy="0.3em" style="text-anchor: end; visibility: hidden; font-family: Roboto, sans-serif; font-size: 12px; font-weight: 200;" fill="rgb(33, 33, 33)" stroke="none" stroke-width="1px">0.8</text><text x="0" y="14.257866615043936" dx="0em" dy="0.3em" style="text-anchor: end; visibility: hidden; font-family: Roboto, sans-serif; font-size: 12px; font-weight: 200;" fill="rgb(33, 33, 33)" stroke="none" stroke-width="1px">0.9</text><text x="0" y="9.288317273773735" dx="0em" dy="0.3em" style="text-anchor: end; visibility: hidden; font-family: Roboto, sans-serif; font-size: 12px; font-weight: 200;" fill="rgb(33, 33, 33)" stroke="none" stroke-width="1px">1</text></g><line x1="51.5625" y1="0" x2="51.5625" y2="177" fill="rgb(0, 0, 0)" stroke="rgb(204, 204, 204)" stroke-width="1px"></line></g></g><g transform="translate(51, 0)" clip-path="url(#clip_0)"><clipPath id="clip_0"><rect width="278" height="177"></rect></clipPath><g><g><g><line x1="0" y1="0" x2="0" y2="177" fill="rgb(0, 0, 0)" stroke="rgb(66, 66, 66)" stroke-width="1px" opacity="0.25"></line><line x1="23.203125" y1="0" x2="23.203125" y2="177" fill="rgb(0, 0, 0)" stroke="rgb(66, 66, 66)" stroke-width="1px" opacity="0.25"></line><line x1="46.40625" y1="0" x2="46.40625" y2="177" fill="rgb(0, 0, 0)" stroke="rgb(66, 66, 66)" stroke-width="1px" opacity="0.25"></line><line x1="69.609375" y1="0" x2="69.609375" y2="177" fill="rgb(0, 0, 0)" stroke="rgb(66, 66, 66)" stroke-width="1px" opacity="0.25"></line><line x1="92.8125" y1="0" x2="92.8125" y2="177" fill="rgb(0, 0, 0)" stroke="rgb(66, 66, 66)" stroke-width="1px" opacity="0.25"></line><line x1="116.015625" y1="0" x2="116.015625" y2="177" fill="rgb(0, 0, 0)" stroke="rgb(66, 66, 66)" stroke-width="1px" opacity="0.25"></line><line x1="139.21875" y1="0" x2="139.21875" y2="177" fill="rgb(0, 0, 0)" stroke="rgb(66, 66, 66)" stroke-width="1px" opacity="0.25"></line><line x1="162.421875" y1="0" x2="162.421875" y2="177" fill="rgb(0, 0, 0)" stroke="rgb(66, 66, 66)" stroke-width="1px" opacity="0.25"></line><line x1="185.625" y1="0" x2="185.625" y2="177" fill="rgb(0, 0, 0)" stroke="rgb(66, 66, 66)" stroke-width="1px" opacity="0.25"></line><line x1="208.828125" y1="0" x2="208.828125" y2="177" fill="rgb(0, 0, 0)" stroke="rgb(66, 66, 66)" stroke-width="1px" opacity="0.25"></line><line x1="232.03125" y1="0" x2="232.03125" y2="177" fill="rgb(0, 0, 0)" stroke="rgb(66, 66, 66)" stroke-width="1px" opacity="0.25"></line><line x1="255.234375" y1="0" x2="255.234375" y2="177" fill="rgb(0, 0, 0)" stroke="rgb(66, 66, 66)" stroke-width="1px" opacity="0.25"></line><line x1="278.4375" y1="0" x2="278.4375" y2="177" fill="rgb(0, 0, 0)" stroke="rgb(66, 66, 66)" stroke-width="1px" opacity="0.25"></line></g><g><line x1="0" y1="174.68246307831666" x2="278.4375" y2="174.68246307831666" fill="rgb(0, 0, 0)" stroke="rgb(66, 66, 66)" stroke-width="1px" opacity="0.25"></line><line x1="0" y1="161.11333573756792" x2="278.4375" y2="161.11333573756792" fill="rgb(0, 0, 0)" stroke="rgb(66, 66, 66)" stroke-width="1px" opacity="0.25"></line><line x1="0" y1="150.58830288708705" x2="278.4375" y2="150.58830288708705" fill="rgb(0, 0, 0)" stroke="rgb(66, 66, 66)" stroke-width="1px" opacity="0.25"></line><line x1="0" y1="141.98872488760853" x2="278.4375" y2="141.98872488760853" fill="rgb(0, 0, 0)" stroke="rgb(66, 66, 66)" stroke-width="1px" opacity="0.25"></line><line x1="0" y1="134.71788528883707" x2="278.4375" y2="134.71788528883707" fill="rgb(0, 0, 0)" stroke="rgb(66, 66, 66)" stroke-width="1px" opacity="0.25"></line><line x1="0" y1="128.41959754685982" x2="278.4375" y2="128.41959754685982" fill="rgb(0, 0, 0)" stroke="rgb(66, 66, 66)" stroke-width="1px" opacity="0.25"></line><line x1="0" y1="122.86411403764913" x2="278.4375" y2="122.86411403764913" fill="rgb(0, 0, 0)" stroke="rgb(66, 66, 66)" stroke-width="1px" opacity="0.25"></line><line x1="0" y1="117.89456469637894" x2="278.4375" y2="117.89456469637894" fill="rgb(0, 0, 0)" stroke="rgb(66, 66, 66)" stroke-width="1px" opacity="0.25"></line><line x1="0" y1="85.20082650567083" x2="278.4375" y2="85.20082650567083" fill="rgb(0, 0, 0)" stroke="rgb(66, 66, 66)" stroke-width="1px" opacity="0.25"></line><line x1="0" y1="66.07621565571142" x2="278.4375" y2="66.07621565571142" fill="rgb(0, 0, 0)" stroke="rgb(66, 66, 66)" stroke-width="1px" opacity="0.25"></line><line x1="0" y1="52.507088314962715" x2="278.4375" y2="52.507088314962715" fill="rgb(0, 0, 0)" stroke="rgb(66, 66, 66)" stroke-width="1px" opacity="0.25"></line><line x1="0" y1="41.982055464481846" x2="278.4375" y2="41.982055464481846" fill="rgb(0, 0, 0)" stroke="rgb(66, 66, 66)" stroke-width="1px" opacity="0.25"></line><line x1="0" y1="33.38247746500332" x2="278.4375" y2="33.38247746500332" fill="rgb(0, 0, 0)" stroke="rgb(66, 66, 66)" stroke-width="1px" opacity="0.25"></line><line x1="0" y1="26.111637866231852" x2="278.4375" y2="26.111637866231852" fill="rgb(0, 0, 0)" stroke="rgb(66, 66, 66)" stroke-width="1px" opacity="0.25"></line><line x1="0" y1="19.81335012425459" x2="278.4375" y2="19.81335012425459" fill="rgb(0, 0, 0)" stroke="rgb(66, 66, 66)" stroke-width="1px" opacity="0.25"></line><line x1="0" y1="14.257866615043936" x2="278.4375" y2="14.257866615043936" fill="rgb(0, 0, 0)" stroke="rgb(66, 66, 66)" stroke-width="1px" opacity="0.25"></line><line x1="0" y1="9.288317273773735" x2="278.4375" y2="9.288317273773735" fill="rgb(0, 0, 0)" stroke="rgb(66, 66, 66)" stroke-width="1px" opacity="0.25"></line></g></g></g><g><g><line x1="23.203125" y1="0" x2="23.203125" y2="177" fill="rgb(0, 0, 0)" stroke="rgb(153, 153, 153)" stroke-width="1.5px"></line></g></g><g><g><g><g><g><path stroke="rgb(51, 187, 238)" stroke-width="2px" d="M23.203125,-9.305434324414739L27.84375,6.960747085413188L32.484375,20.44289920861427L37.125,30.76712868165758L41.765625,39.78542385650684L46.40625,47.579399610637864L51.04687499999999,54.57135649880151L55.6875,59.690088122716425L60.328125,64.64393923023094L64.96875,69.56745886295383L69.609375,73.45532638371634L74.25,77.3959486332276L78.890625,80.81252090511454L83.53125,83.90120651587131L88.171875,86.45104946188873L92.8125,89.35714877627586L97.453125,91.7292474963208L102.09374999999999,93.91000054684812L106.73437500000001,95.7093173113735L111.375,97.94950375875283L116.015625,101.35473676996504L120.65625,103.76256289650478L125.296875,105.49539100522992L129.9375,107.9664593039885L134.578125,110.43880445459567L139.21875,112.4475745133973L143.85937500000003,114.05602497034718L148.5,115.27298001798933L153.140625,118.92196704719817L157.78125,122.01252661107459L162.421875,123.67377596222205L167.0625,126.29237564874805L171.703125,128.52240195375353L176.34375,129.20292837174262L180.984375,132.4193891824601L185.625,134.0053814929904L190.265625,136.23188575261275L194.90625,137.3420101123533L199.546875,140.14626558191284L204.18749999999997,142.55606276278075L208.828125,144.30864007301622L213.46875000000003,145.84718625677866L218.109375,148.2196139751434L222.75,149.2662446360832L227.390625,150.60412032627315L232.03125,153.09572873638947L236.671875,153.09382731915966L241.3125,154.79852724033688L245.953125,153.82015820431326L250.59375,154.51293842406233" style="fill: none;" fill="none"></path></g><g><path stroke="rgb(187, 187, 187)" stroke-width="2px" d="M23.203125,-9.7708555544316L27.84375,8.18734693666058L32.484375,21.157732658403333L37.125,32.11116744367356L41.765625,41.0029573392316L46.40625,48.52291712676005L51.04687499999999,54.575313862623176L55.6875,60.511123068594365L60.328125,65.91496030679671L64.96875,70.61076837652199L69.609375,74.9243178617188L74.25,78.30213664072242L78.890625,82.32784941188034L83.53125,85.0953708224312L88.171875,88.54184031780697L92.8125,91.03688318255026L97.453125,94.2467528542583L102.09374999999999,95.93669250989437L106.73437500000001,97.90324422285113L111.375,100.9617364533619L116.015625,103.13774086437384L120.65625,105.457762403035L125.296875,107.74855718407447L129.9375,110.18724159231904L134.578125,111.20472817963255L139.21875,113.3331757636793L143.85937500000003,116.91388572920809L148.5,118.45548075101291L153.140625,119.18672013019021L157.78125,123.18273701822146L162.421875,125.05196492739229L167.0625,127.13235534142197L171.703125,128.45651367186224L176.34375,130.4899495005032L180.984375,133.37181275654626L185.625,135.42351908902378L190.265625,136.1906619455151L194.90625,138.4539794283478L199.546875,139.43902595322533L204.18749999999997,142.45431109144258L208.828125,143.61473069432847L213.46875000000003,145.97011581207192L218.109375,148.26914952050333L222.75,149.4096807168649L227.390625,151.7142857142857L232.03125,151.42336427781896L236.671875,150.59031051610742L241.3125,151.918633423429L245.953125,151.7980958412L250.59375,152.17309040820174" style="fill: none;" fill="none"></path></g><g><path stroke="rgb(0, 153, 136)" stroke-width="2px" d="M23.203125,-4.552982772287589L27.84375,13.30530448601672L32.484375,26.746014197274413L37.125,37.26245300713456L41.765625,46.11316290868122L46.40625,53.52676209334643L51.04687499999999,60.146668982444986L55.6875,65.73784752196102L60.328125,70.39584035407127L64.96875,74.89970335972984L69.609375,78.1632531995777L74.25,81.33927625013332L78.890625,84.88652350197837L83.53125,88.04780927733023L88.171875,91.39282688987731L92.8125,93.41975997324951L97.453125,95.69223309903484L102.09374999999999,98.10364248617793L106.73437500000001,100.31777010953483L111.375,103.0651310554741L116.015625,105.0317448682359L120.65625,106.57433653544734L125.296875,109.0320924623131L129.9375,111.27883697433131L134.578125,112.96098109109195L139.21875,116.03273360014849L143.85937500000003,117.63407547068837L148.5,120.34652780698207L153.140625,122.28607706320938L157.78125,124.24763860191065L162.421875,127.60067702984112L167.0625,128.39185949209954L171.703125,130.18323673631954L176.34375,130.47072224611446L180.984375,132.92061086911792L185.625,136.02981502928023L190.265625,138.99612728766564L194.90625,139.9898100404509L199.546875,142.02641658256562L204.18749999999997,143.60166180731235L208.828125,143.93704715757877L213.46875000000003,146.44728937396292L218.109375,148.96267637917495L222.75,150.2472123284887L227.390625,152.06776099376594L232.03125,151.4094941444912L236.671875,153.27219698047497L241.3125,154.55466280596474L245.953125,155.1198561391115L250.59375,156.71614782024443" style="fill: none;" fill="none"></path></g><g><path stroke="rgb(238, 51, 119)" stroke-width="2px" d="M23.203125,-9.016073863795096L27.84375,6.54969541036082L32.484375,18.662151924776122L37.125,29.87031229458684L41.765625,38.96161445762568L46.40625,46.10679875224773L51.04687499999999,53.23499306750734L55.6875,59.197043080792014L60.328125,62.780310538893644L64.96875,65.96011270488397L69.609375,69.48441423992325L74.25,73.84013838935348L78.890625,77.57462549119235L83.53125,81.08280253044643L88.171875,84.66805365574132L92.8125,86.38919379741367L97.453125,89.70938579918851L102.09374999999999,92.85634443044204L106.73437500000001,95.16445835689431L111.375,97.37904504616615L116.015625,99.87934411082801L120.65625,102.47222925650424L125.296875,105.17534431840902L129.9375,108.16669426685925L134.578125,109.70331076620111L139.21875,112.48208394172218L143.85937500000003,112.69834850179504L148.5,115.18598646497048L153.140625,116.31946119862496L157.78125,118.32034096810224L162.421875,120.00880885145042L167.0625,122.50435624609297L171.703125,125.78713126602327L176.34375,127.02943552680034L180.984375,129.60060909614455L185.625,131.46035823488123L190.265625,132.40090143827769L194.90625,133.68070206774286L199.546875,135.02210332698317L204.18749999999997,136.56609558842956L208.828125,136.51301045540131L213.46875000000003,138.872545685992L218.109375,141.18081979905008L222.75,141.98587203776634L227.390625,142.23908192973855L232.03125,143.81883923907026L236.671875,145.40153863225163L241.3125,147.0644640904148L245.953125,148.60424786461775L250.59375,147.8333199724683" style="fill: none;" fill="none"></path></g><g><path stroke="rgb(0, 119, 187)" stroke-width="2px" d="M23.203125,-5.771248047126953L27.84375,12.639523868283872L32.484375,25.285714285714295L37.125,35.815735959529135L41.765625,44.43616460433007L46.40625,51.76010216065561L51.04687499999999,57.751894499348055L55.6875,63.29615873783909L60.328125,68.22896468911688L64.96875,72.56929660779807L69.609375,76.48817573024272L74.25,79.89826922688101L78.890625,83.74632444248846L83.53125,85.86086483202263L88.171875,88.05318105328304L92.8125,90.97036374876929L97.453125,93.53792564299192L102.09374999999999,95.13027792703467L106.73437500000001,97.90176336754875L111.375,99.55571932224211L116.015625,102.19564769305521L120.65625,103.87824521483725L125.296875,105.79933510961821L129.9375,108.9302284751582L134.578125,110.89041546089167L139.21875,113.5091638211741L143.85937500000003,113.95223671441717L148.5,115.54490577144357L153.140625,117.66868854629189L157.78125,119.55924888999805L162.421875,122.2482836085933L167.0625,124.162896534949L171.703125,125.8075224562615L176.34375,128.12446933924375L180.984375,130.66017572137255L185.625,132.23587895135032L190.265625,134.24404397109845L194.90625,134.7817032208231L199.546875,137.4015124132749L204.18749999999997,139.2017681572394L208.828125,140.60150951536565L213.46875000000003,141.5424453067329L218.109375,144.59286379909398L222.75,143.95209823012934L227.390625,143.79810796209725L232.03125,143.83401943061773L236.671875,146.21833537097413L241.3125,147.07923794220002L245.953125,149.24415675559078L250.59375,149.52280836515712" style="fill: none;" fill="none"></path></g></g></g></g><g opacity="0.2"><g><g><g><path stroke="rgb(51, 187, 238)" stroke-width="2px" d="M23.203125,-9.305434324414739L27.84375,20.346457214767653L32.484375,38.47019343070275L37.125,46.77250252590065L41.765625,54.95945649012077L46.40625,61.05804189790896L51.04687499999999,66.8074221345771L55.6875,68.31606954172022L60.328125,73.05458691825646L64.96875,77.98124890187754L69.609375,79.92105440281014L74.25,83.97693382028406L78.890625,86.43856691070081L83.53125,88.94317359027173L88.171875,90.55115785105806L92.8125,94.08002904610595L97.453125,95.52616196539545L102.09374999999999,97.38207701370608L106.73437500000001,98.54363168514078L111.375,101.52263707539127L116.015625,106.97299977914457L120.65625,107.62164846621911L125.296875,108.2201419205308L129.9375,111.93414111947638L134.578125,114.40869483411089L139.21875,115.63084619459542L143.85937500000003,116.57646346468871L148.5,117.15938821675638L153.140625,124.986412293888L157.78125,127.06479175309516L162.421875,126.28078974558217L167.0625,130.5148388191833L171.703125,132.0785268850443L176.34375,130.24248971465883L180.984375,137.69693134938694L185.625,136.48907839232098L190.265625,139.78203895201457L194.90625,139.05777895831207L199.546875,144.69242261107337L204.18749999999997,146.41861344277822L208.828125,147.06600598772022L213.46875000000003,148.25340333864443L218.109375,152.01820668759996L222.75,150.881068584627L227.390625,152.68489523679952L232.03125,157.09878082589879L236.671875,153.09097533702732L241.3125,157.4769774264765L245.953125,152.3896344602358L250.59375,155.5715695298102" style="fill: none;" fill="none"></path></g><g><path stroke="rgb(187, 187, 187)" stroke-width="2px" d="M23.203125,-9.7708555544316L27.84375,23.552174457904936L32.484375,38.2414800031758L37.125,49.43660386390375L41.765625,55.90231190722506L46.40625,61.41189912952982L51.04687499999999,64.85279437200028L55.6875,70.77338410135452L60.328125,75.21926228121387L64.96875,78.57912631740565L69.609375,82.1908322519712L74.25,83.84942786921034L78.890625,89.07875576397376L83.53125,89.571063361429L88.171875,94.23056809358323L92.8125,95.0438807197071L97.453125,99.51088838632813L102.09374999999999,98.59039411739657L106.73437500000001,101.01558637080407L111.375,105.95657154827214L116.015625,106.60226697440093L120.65625,109.16680803180924L125.296875,111.40786114863928L129.9375,114.09929496413744L134.578125,112.77332774705822L139.21875,116.71753502681531L143.85937500000003,122.85274697625525L148.5,120.86666791104501L153.140625,120.30528412599661L157.78125,129.89353121075672L162.421875,128.00249586773174L167.0625,130.43581167935267L171.703125,130.515174059113L176.34375,133.714563292793L180.984375,138.05432148297058L185.625,138.67878654092266L190.265625,137.36529053143758L194.90625,142.06661266911533L199.546875,140.95627617361902L204.18749999999997,147.37268720334362L208.828125,145.41071140835913L213.46875000000003,149.7395856172439L218.109375,151.94252688629612L222.75,151.17391647118305L227.390625,155.39714961774504L232.03125,150.9903191489951L236.671875,149.3676838582799L241.3125,153.98400609896441L245.953125,151.6178650804943L250.59375,152.7412322197729" style="fill: none;" fill="none"></path></g><g><path stroke="rgb(0, 153, 136)" stroke-width="2px" d="M23.203125,-4.552982772287589L27.84375,28.548907874885487L32.484375,44.69580976108299L37.125,53.66531796951634L41.765625,60.92382195059485L46.40625,66.18974723441724L51.04687499999999,71.59272602797151L55.6875,75.29955011211909L60.328125,78.2325476162183L64.96875,82.49747873711573L69.609375,83.49115870368135L74.25,86.52431956855006L78.890625,90.75041457249694L83.53125,93.21927199852693L88.171875,96.89755816199558L92.8125,96.63190785464978L97.453125,99.31936197967393L102.09374999999999,101.96827374642965L106.73437500000001,103.84657485387919L111.375,107.51143572722016L116.015625,108.14439989539885L120.65625,108.98709761733166L125.296875,112.97687230529391L129.9375,114.8632966211951L134.578125,115.60231334929709L139.21875,121.05147777802225L143.85937500000003,120.14287794348802L148.5,124.7321832863005L153.140625,125.35366964576185L157.78125,127.35197121267664L162.421875,133.1245054848561L167.0625,129.60408736681816L171.703125,133.00471181135444L176.34375,130.90526287520848L180.984375,136.85193115007323L185.625,141.1153371889656L190.265625,143.82771297576465L194.90625,141.5207236353582L199.546875,145.2563479448633L204.18749999999997,146.0677906940346L208.828125,144.4446394930974L213.46875000000003,150.48243565159987L218.109375,153.00668993905177L222.75,152.24209012263015L227.390625,154.93752868292228L232.03125,150.43900504449036L236.671875,156.21188994862996L241.3125,156.54621202696785L245.953125,155.9805512750812L250.59375,159.21669084412105" style="fill: none;" fill="none"></path></g><g><path stroke="rgb(238, 51, 119)" stroke-width="2px" d="M23.203125,-9.016073863795096L27.84375,19.159640910605592L32.484375,34.22712334147831L37.125,47.74600333158216L41.765625,54.295234219230935L46.40625,58.20644823093873L51.04687499999999,65.76527173722785L55.6875,69.51328646637836L60.328125,68.6176053119334L64.96875,71.11638675724012L69.609375,75.28238064945786L74.25,81.20648404697683L78.890625,83.78258294217964L83.53125,86.88076441342099L88.171875,90.61029514447256L92.8125,89.09340902338404L97.453125,95.17216712571616L102.09374999999999,98.0083974538931L106.73437500000001,98.85290898364532L111.375,100.90877638253527L116.015625,103.89720702991366L120.65625,106.65003811356432L125.296875,109.54466816180421L129.9375,113.04258035295832L134.578125,112.1063693195361L139.21875,116.98359144135736L143.85937500000003,113.02461545570112L148.5,119.182200192099L153.140625,118.07244100278712L157.78125,121.4904110950287L162.421875,122.66055145375796L167.0625,126.51418926817793L171.703125,131.18400642764203L176.34375,128.9564837570794L180.984375,133.74094270677125L185.625,134.3951461460018L190.265625,133.84784519724408L194.90625,135.6679664407626L199.546875,137.10856466877104L204.18749999999997,138.98119573004496L208.828125,136.4334946113371L213.46875000000003,142.6491047030896L218.109375,144.8699329582489L222.75,143.2198156380795L227.390625,142.62146388400132L232.03125,146.29234266315612L236.671875,147.87985158699186L241.3125,149.67423088014428L245.953125,151.01248333750948L250.59375,146.70005128103136" style="fill: none;" fill="none"></path></g><g><path stroke="rgb(0, 119, 187)" stroke-width="2px" d="M23.203125,-5.771248047126953L27.84375,28.560645481495698L32.484375,41.78651953930389L37.125,52.24687919302833L41.765625,58.75410111050982L46.40625,64.23380324814467L51.04687499999999,67.90709329513038L55.6875,72.76368596590615L60.328125,76.59843533795406L64.96875,79.85480335352898L69.609375,83.01154336491417L74.25,85.50390106972749L78.890625,90.16487258342659L83.53125,89.21724661544997L88.171875,91.54258693183432L92.8125,95.71278492274136L97.453125,97.67079521398615L102.09374999999999,97.6239428369289L106.73437500000001,102.39005263872069L111.375,102.15059731608524L116.015625,106.45495799128088L120.65625,106.52027613678167L125.296875,108.8361142844293L129.9375,114.05443968317607L134.578125,113.99243854455268L139.21875,117.73187283866928L143.85937500000003,114.62474792568257L148.5,118.03951975273114L153.140625,121.04519193186707L157.78125,122.5452420381426L162.421875,126.5931395414953L167.0625,127.18892627253089L171.703125,128.387252491757L176.34375,131.82835904920367L180.984375,134.73923631037445L185.625,134.70275627724834L190.265625,137.42631183167484L194.90625,135.59986121487313L199.546875,141.6260736634059L204.18749999999997,142.03793314361977L208.828125,142.78222994417965L213.46875000000003,142.99000854338473L218.109375,149.57365790223187L222.75,143.00698153139837L227.390625,143.5680611224458L232.03125,143.88793795138184L236.671875,150.03725992217363L241.3125,148.40079113282337L245.953125,152.69007947138726L250.59375,149.9438969407973" style="fill: none;" fill="none"></path></g></g></g></g></g></g><g transform="translate(51, 177)" clip-path="url(#clip_1)"><clipPath id="clip_1"><rect width="278" height="23"></rect></clipPath><g><g><line x1="0" y1="0" x2="0" y2="5" style="visibility: inherit;" fill="rgb(0, 0, 0)" stroke="rgb(204, 204, 204)" stroke-width="1px"></line><line x1="23.203125" y1="0" x2="23.203125" y2="5" style="visibility: inherit;" fill="rgb(0, 0, 0)" stroke="rgb(204, 204, 204)" stroke-width="1px"></line><line x1="46.40625" y1="0" x2="46.40625" y2="5" style="visibility: inherit;" fill="rgb(0, 0, 0)" stroke="rgb(204, 204, 204)" stroke-width="1px"></line><line x1="69.609375" y1="0" x2="69.609375" y2="5" style="visibility: inherit;" fill="rgb(0, 0, 0)" stroke="rgb(204, 204, 204)" stroke-width="1px"></line><line x1="92.8125" y1="0" x2="92.8125" y2="5" style="visibility: inherit;" fill="rgb(0, 0, 0)" stroke="rgb(204, 204, 204)" stroke-width="1px"></line><line x1="116.015625" y1="0" x2="116.015625" y2="5" style="visibility: inherit;" fill="rgb(0, 0, 0)" stroke="rgb(204, 204, 204)" stroke-width="1px"></line><line x1="139.21875" y1="0" x2="139.21875" y2="5" style="visibility: inherit;" fill="rgb(0, 0, 0)" stroke="rgb(204, 204, 204)" stroke-width="1px"></line><line x1="162.421875" y1="0" x2="162.421875" y2="5" style="visibility: inherit;" fill="rgb(0, 0, 0)" stroke="rgb(204, 204, 204)" stroke-width="1px"></line><line x1="185.625" y1="0" x2="185.625" y2="5" style="visibility: inherit;" fill="rgb(0, 0, 0)" stroke="rgb(204, 204, 204)" stroke-width="1px"></line><line x1="208.828125" y1="0" x2="208.828125" y2="5" style="visibility: inherit;" fill="rgb(0, 0, 0)" stroke="rgb(204, 204, 204)" stroke-width="1px"></line><line x1="232.03125" y1="0" x2="232.03125" y2="5" style="visibility: inherit;" fill="rgb(0, 0, 0)" stroke="rgb(204, 204, 204)" stroke-width="1px"></line><line x1="255.234375" y1="0" x2="255.234375" y2="5" style="visibility: inherit;" fill="rgb(0, 0, 0)" stroke="rgb(204, 204, 204)" stroke-width="1px"></line><line x1="278.4375" y1="0" x2="278.4375" y2="5" style="visibility: inherit;" fill="rgb(0, 0, 0)" stroke="rgb(204, 204, 204)" stroke-width="1px"></line></g><g transform="translate(0, 8)"><text x="0" y="0" dx="0em" dy="0.95em" style="text-anchor: middle; visibility: hidden; font-family: Roboto, sans-serif; font-size: 12px; font-weight: 200;" fill="rgb(33, 33, 33)" stroke="none" stroke-width="1px">-5</text><text x="23.203125" y="0" dx="0em" dy="0.95em" style="text-anchor: middle; visibility: inherit; font-family: Roboto, sans-serif; font-size: 12px; font-weight: 200;" fill="rgb(33, 33, 33)" stroke="none" stroke-width="1px">0</text><text x="46.40625" y="0" dx="0em" dy="0.95em" style="text-anchor: middle; visibility: inherit; font-family: Roboto, sans-serif; font-size: 12px; font-weight: 200;" fill="rgb(33, 33, 33)" stroke="none" stroke-width="1px">5</text><text x="69.609375" y="0" dx="0em" dy="0.95em" style="text-anchor: middle; visibility: inherit; font-family: Roboto, sans-serif; font-size: 12px; font-weight: 200;" fill="rgb(33, 33, 33)" stroke="none" stroke-width="1px">10</text><text x="92.8125" y="0" dx="0em" dy="0.95em" style="text-anchor: middle; visibility: inherit; font-family: Roboto, sans-serif; font-size: 12px; font-weight: 200;" fill="rgb(33, 33, 33)" stroke="none" stroke-width="1px">15</text><text x="116.015625" y="0" dx="0em" dy="0.95em" style="text-anchor: middle; visibility: inherit; font-family: Roboto, sans-serif; font-size: 12px; font-weight: 200;" fill="rgb(33, 33, 33)" stroke="none" stroke-width="1px">20</text><text x="139.21875" y="0" dx="0em" dy="0.95em" style="text-anchor: middle; visibility: inherit; font-family: Roboto, sans-serif; font-size: 12px; font-weight: 200;" fill="rgb(33, 33, 33)" stroke="none" stroke-width="1px">25</text><text x="162.421875" y="0" dx="0em" dy="0.95em" style="text-anchor: middle; visibility: inherit; font-family: Roboto, sans-serif; font-size: 12px; font-weight: 200;" fill="rgb(33, 33, 33)" stroke="none" stroke-width="1px">30</text><text x="185.625" y="0" dx="0em" dy="0.95em" style="text-anchor: middle; visibility: inherit; font-family: Roboto, sans-serif; font-size: 12px; font-weight: 200;" fill="rgb(33, 33, 33)" stroke="none" stroke-width="1px">35</text><text x="208.828125" y="0" dx="0em" dy="0.95em" style="text-anchor: middle; visibility: inherit; font-family: Roboto, sans-serif; font-size: 12px; font-weight: 200;" fill="rgb(33, 33, 33)" stroke="none" stroke-width="1px">40</text><text x="232.03125" y="0" dx="0em" dy="0.95em" style="text-anchor: middle; visibility: inherit; font-family: Roboto, sans-serif; font-size: 12px; font-weight: 200;" fill="rgb(33, 33, 33)" stroke="none" stroke-width="1px">45</text><text x="255.234375" y="0" dx="0em" dy="0.95em" style="text-anchor: middle; visibility: inherit; font-family: Roboto, sans-serif; font-size: 12px; font-weight: 200;" fill="rgb(33, 33, 33)" stroke="none" stroke-width="1px">50</text><text x="278.4375" y="0" dx="0em" dy="0.95em" style="text-anchor: middle; visibility: hidden; font-family: Roboto, sans-serif; font-size: 12px; font-weight: 200;" fill="rgb(33, 33, 33)" stroke="none" stroke-width="1px">55</text></g><line x1="0" y1="0" x2="278.4375" y2="0" fill="rgb(0, 0, 0)" stroke="rgb(204, 204, 204)" stroke-width="1px"></line></g></g></g></g></svg>